<mxfile host="app.diagrams.net" agent="Mozilla/5.0 (Windows NT 10.0; Win64; x64) AppleWebKit/537.36 (KHTML, like Gecko) Chrome/129.0.0.0 Safari/537.36 Edg/129.0.0.0" version="24.8.0">
  <diagram name="第 1 页" id="f_hHqoODYuRUCBq2NukQ">
    <mxGraphModel dx="1426" dy="793" grid="1" gridSize="10" guides="1" tooltips="1" connect="1" arrows="1" fold="1" page="1" pageScale="1" pageWidth="827" pageHeight="1169" math="0" shadow="0">
      <root>
        <mxCell id="0" />
        <mxCell id="1" parent="0" />
        <mxCell id="OD2q_SU7iHxMV3abvHj3-4" value="" style="edgeStyle=orthogonalEdgeStyle;rounded=0;orthogonalLoop=1;jettySize=auto;html=1;" edge="1" parent="1" target="OD2q_SU7iHxMV3abvHj3-3">
          <mxGeometry relative="1" as="geometry">
            <mxPoint x="55" y="520" as="sourcePoint" />
            <Array as="points">
              <mxPoint x="55" y="420" />
            </Array>
          </mxGeometry>
        </mxCell>
        <mxCell id="OD2q_SU7iHxMV3abvHj3-78" style="edgeStyle=orthogonalEdgeStyle;rounded=0;orthogonalLoop=1;jettySize=auto;html=1;entryX=0;entryY=0.5;entryDx=0;entryDy=0;" edge="1" parent="1" source="OD2q_SU7iHxMV3abvHj3-1" target="OD2q_SU7iHxMV3abvHj3-53">
          <mxGeometry relative="1" as="geometry">
            <Array as="points">
              <mxPoint x="55" y="677" />
            </Array>
          </mxGeometry>
        </mxCell>
        <mxCell id="OD2q_SU7iHxMV3abvHj3-1" value="" style="shape=umlActor;verticalLabelPosition=bottom;verticalAlign=top;html=1;outlineConnect=0;" vertex="1" parent="1">
          <mxGeometry x="40" y="530" width="30" height="60" as="geometry" />
        </mxCell>
        <mxCell id="OD2q_SU7iHxMV3abvHj3-6" value="" style="edgeStyle=orthogonalEdgeStyle;rounded=0;orthogonalLoop=1;jettySize=auto;html=1;" edge="1" parent="1" source="OD2q_SU7iHxMV3abvHj3-3" target="OD2q_SU7iHxMV3abvHj3-5">
          <mxGeometry relative="1" as="geometry" />
        </mxCell>
        <mxCell id="OD2q_SU7iHxMV3abvHj3-3" value="Gitlab&lt;div&gt;libs&lt;/div&gt;&lt;div&gt;MR：feat1-&amp;gt;develop&lt;/div&gt;" style="whiteSpace=wrap;html=1;verticalAlign=middle;" vertex="1" parent="1">
          <mxGeometry x="170" y="390" width="120" height="60" as="geometry" />
        </mxCell>
        <mxCell id="OD2q_SU7iHxMV3abvHj3-5" value="Jenkins&lt;div&gt;CI&lt;/div&gt;&lt;div&gt;Checkout&lt;/div&gt;" style="whiteSpace=wrap;html=1;verticalAlign=middle;" vertex="1" parent="1">
          <mxGeometry x="370" y="390" width="120" height="60" as="geometry" />
        </mxCell>
        <mxCell id="OD2q_SU7iHxMV3abvHj3-10" value="" style="shape=curlyBracket;whiteSpace=wrap;html=1;rounded=1;labelPosition=left;verticalLabelPosition=middle;align=right;verticalAlign=middle;" vertex="1" parent="1">
          <mxGeometry x="500" y="310" width="20" height="220" as="geometry" />
        </mxCell>
        <mxCell id="OD2q_SU7iHxMV3abvHj3-25" value="Assets" style="childLayout=tableLayout;recursiveResize=0;strokeColor=#98bf21;fillColor=#A7C942;shadow=1;" vertex="1" parent="1">
          <mxGeometry x="540" y="303" width="187" height="222" as="geometry" />
        </mxCell>
        <mxCell id="OD2q_SU7iHxMV3abvHj3-26" style="shape=tableRow;horizontal=0;startSize=0;swimlaneHead=0;swimlaneBody=0;top=0;left=0;bottom=0;right=0;dropTarget=0;collapsible=0;recursiveResize=0;expand=0;fontStyle=0;strokeColor=inherit;fillColor=#ffffff;" vertex="1" parent="OD2q_SU7iHxMV3abvHj3-25">
          <mxGeometry width="187" height="33" as="geometry" />
        </mxCell>
        <mxCell id="OD2q_SU7iHxMV3abvHj3-27" value="模块" style="connectable=0;recursiveResize=0;strokeColor=inherit;fillColor=#A7C942;align=center;fontStyle=1;fontColor=#FFFFFF;html=1;" vertex="1" parent="OD2q_SU7iHxMV3abvHj3-26">
          <mxGeometry width="90" height="33" as="geometry">
            <mxRectangle width="90" height="33" as="alternateBounds" />
          </mxGeometry>
        </mxCell>
        <mxCell id="OD2q_SU7iHxMV3abvHj3-28" value="最终分支" style="connectable=0;recursiveResize=0;strokeColor=inherit;fillColor=#A7C942;align=center;fontStyle=1;fontColor=#FFFFFF;html=1;" vertex="1" parent="OD2q_SU7iHxMV3abvHj3-26">
          <mxGeometry x="90" width="97" height="33" as="geometry">
            <mxRectangle width="97" height="33" as="alternateBounds" />
          </mxGeometry>
        </mxCell>
        <mxCell id="OD2q_SU7iHxMV3abvHj3-30" value="" style="shape=tableRow;horizontal=0;startSize=0;swimlaneHead=0;swimlaneBody=0;top=0;left=0;bottom=0;right=0;dropTarget=0;collapsible=0;recursiveResize=0;expand=0;fontStyle=0;strokeColor=inherit;fillColor=#ffffff;" vertex="1" parent="OD2q_SU7iHxMV3abvHj3-25">
          <mxGeometry y="33" width="187" height="32" as="geometry" />
        </mxCell>
        <mxCell id="OD2q_SU7iHxMV3abvHj3-31" value="prebuilt" style="connectable=0;recursiveResize=0;strokeColor=inherit;fillColor=inherit;align=center;whiteSpace=wrap;html=1;" vertex="1" parent="OD2q_SU7iHxMV3abvHj3-30">
          <mxGeometry width="90" height="32" as="geometry">
            <mxRectangle width="90" height="32" as="alternateBounds" />
          </mxGeometry>
        </mxCell>
        <mxCell id="OD2q_SU7iHxMV3abvHj3-32" value="develop" style="connectable=0;recursiveResize=0;strokeColor=inherit;fillColor=inherit;align=center;whiteSpace=wrap;html=1;" vertex="1" parent="OD2q_SU7iHxMV3abvHj3-30">
          <mxGeometry x="90" width="97" height="32" as="geometry">
            <mxRectangle width="97" height="32" as="alternateBounds" />
          </mxGeometry>
        </mxCell>
        <mxCell id="OD2q_SU7iHxMV3abvHj3-34" value="" style="shape=tableRow;horizontal=0;startSize=0;swimlaneHead=0;swimlaneBody=0;top=0;left=0;bottom=0;right=0;dropTarget=0;collapsible=0;recursiveResize=0;expand=0;fontStyle=1;strokeColor=inherit;fillColor=#EAF2D3;" vertex="1" parent="OD2q_SU7iHxMV3abvHj3-25">
          <mxGeometry y="65" width="187" height="31" as="geometry" />
        </mxCell>
        <mxCell id="OD2q_SU7iHxMV3abvHj3-35" value="build" style="connectable=0;recursiveResize=0;strokeColor=inherit;fillColor=inherit;whiteSpace=wrap;html=1;" vertex="1" parent="OD2q_SU7iHxMV3abvHj3-34">
          <mxGeometry width="90" height="31" as="geometry">
            <mxRectangle width="90" height="31" as="alternateBounds" />
          </mxGeometry>
        </mxCell>
        <mxCell id="OD2q_SU7iHxMV3abvHj3-36" value="develop" style="connectable=0;recursiveResize=0;strokeColor=inherit;fillColor=inherit;whiteSpace=wrap;html=1;" vertex="1" parent="OD2q_SU7iHxMV3abvHj3-34">
          <mxGeometry x="90" width="97" height="31" as="geometry">
            <mxRectangle width="97" height="31" as="alternateBounds" />
          </mxGeometry>
        </mxCell>
        <mxCell id="OD2q_SU7iHxMV3abvHj3-38" value="" style="shape=tableRow;horizontal=0;startSize=0;swimlaneHead=0;swimlaneBody=0;top=0;left=0;bottom=0;right=0;dropTarget=0;collapsible=0;recursiveResize=0;expand=0;fontStyle=0;strokeColor=inherit;fillColor=#ffffff;" vertex="1" parent="OD2q_SU7iHxMV3abvHj3-25">
          <mxGeometry y="96" width="187" height="33" as="geometry" />
        </mxCell>
        <mxCell id="OD2q_SU7iHxMV3abvHj3-39" value="uboot" style="connectable=0;recursiveResize=0;strokeColor=inherit;fillColor=inherit;fontStyle=0;align=center;whiteSpace=wrap;html=1;" vertex="1" parent="OD2q_SU7iHxMV3abvHj3-38">
          <mxGeometry width="90" height="33" as="geometry">
            <mxRectangle width="90" height="33" as="alternateBounds" />
          </mxGeometry>
        </mxCell>
        <mxCell id="OD2q_SU7iHxMV3abvHj3-40" value="develop" style="connectable=0;recursiveResize=0;strokeColor=inherit;fillColor=inherit;fontStyle=0;align=center;whiteSpace=wrap;html=1;" vertex="1" parent="OD2q_SU7iHxMV3abvHj3-38">
          <mxGeometry x="90" width="97" height="33" as="geometry">
            <mxRectangle width="97" height="33" as="alternateBounds" />
          </mxGeometry>
        </mxCell>
        <mxCell id="OD2q_SU7iHxMV3abvHj3-42" value="" style="shape=tableRow;horizontal=0;startSize=0;swimlaneHead=0;swimlaneBody=0;top=0;left=0;bottom=0;right=0;dropTarget=0;collapsible=0;recursiveResize=0;expand=0;fontStyle=1;strokeColor=inherit;fillColor=#EAF2D3;" vertex="1" parent="OD2q_SU7iHxMV3abvHj3-25">
          <mxGeometry y="129" width="187" height="31" as="geometry" />
        </mxCell>
        <mxCell id="OD2q_SU7iHxMV3abvHj3-43" value="kernel" style="connectable=0;recursiveResize=0;strokeColor=inherit;fillColor=inherit;whiteSpace=wrap;html=1;" vertex="1" parent="OD2q_SU7iHxMV3abvHj3-42">
          <mxGeometry width="90" height="31" as="geometry">
            <mxRectangle width="90" height="31" as="alternateBounds" />
          </mxGeometry>
        </mxCell>
        <mxCell id="OD2q_SU7iHxMV3abvHj3-44" value="develop" style="connectable=0;recursiveResize=0;strokeColor=inherit;fillColor=inherit;whiteSpace=wrap;html=1;" vertex="1" parent="OD2q_SU7iHxMV3abvHj3-42">
          <mxGeometry x="90" width="97" height="31" as="geometry">
            <mxRectangle width="97" height="31" as="alternateBounds" />
          </mxGeometry>
        </mxCell>
        <mxCell id="OD2q_SU7iHxMV3abvHj3-49" style="shape=tableRow;horizontal=0;startSize=0;swimlaneHead=0;swimlaneBody=0;top=0;left=0;bottom=0;right=0;dropTarget=0;collapsible=0;recursiveResize=0;expand=0;fontStyle=1;strokeColor=inherit;fillColor=#EAF2D3;" vertex="1" parent="OD2q_SU7iHxMV3abvHj3-25">
          <mxGeometry y="160" width="187" height="31" as="geometry" />
        </mxCell>
        <mxCell id="OD2q_SU7iHxMV3abvHj3-50" value="&lt;font color=&quot;#ff0000&quot;&gt;libs&lt;/font&gt;" style="connectable=0;recursiveResize=0;strokeColor=inherit;fillColor=inherit;whiteSpace=wrap;html=1;" vertex="1" parent="OD2q_SU7iHxMV3abvHj3-49">
          <mxGeometry width="90" height="31" as="geometry">
            <mxRectangle width="90" height="31" as="alternateBounds" />
          </mxGeometry>
        </mxCell>
        <mxCell id="OD2q_SU7iHxMV3abvHj3-51" value="&lt;font color=&quot;#ff0000&quot;&gt;feat1&lt;/font&gt;" style="connectable=0;recursiveResize=0;strokeColor=inherit;fillColor=inherit;whiteSpace=wrap;html=1;" vertex="1" parent="OD2q_SU7iHxMV3abvHj3-49">
          <mxGeometry x="90" width="97" height="31" as="geometry">
            <mxRectangle width="97" height="31" as="alternateBounds" />
          </mxGeometry>
        </mxCell>
        <mxCell id="OD2q_SU7iHxMV3abvHj3-46" style="shape=tableRow;horizontal=0;startSize=0;swimlaneHead=0;swimlaneBody=0;top=0;left=0;bottom=0;right=0;dropTarget=0;collapsible=0;recursiveResize=0;expand=0;fontStyle=1;strokeColor=inherit;fillColor=#EAF2D3;" vertex="1" parent="OD2q_SU7iHxMV3abvHj3-25">
          <mxGeometry y="191" width="187" height="31" as="geometry" />
        </mxCell>
        <mxCell id="OD2q_SU7iHxMV3abvHj3-47" value="apps" style="connectable=0;recursiveResize=0;strokeColor=inherit;fillColor=inherit;whiteSpace=wrap;html=1;" vertex="1" parent="OD2q_SU7iHxMV3abvHj3-46">
          <mxGeometry width="90" height="31" as="geometry">
            <mxRectangle width="90" height="31" as="alternateBounds" />
          </mxGeometry>
        </mxCell>
        <mxCell id="OD2q_SU7iHxMV3abvHj3-48" value="develop" style="connectable=0;recursiveResize=0;strokeColor=inherit;fillColor=inherit;whiteSpace=wrap;html=1;" vertex="1" parent="OD2q_SU7iHxMV3abvHj3-46">
          <mxGeometry x="90" width="97" height="31" as="geometry">
            <mxRectangle width="97" height="31" as="alternateBounds" />
          </mxGeometry>
        </mxCell>
        <mxCell id="OD2q_SU7iHxMV3abvHj3-52" value="" style="edgeStyle=orthogonalEdgeStyle;rounded=0;orthogonalLoop=1;jettySize=auto;html=1;" edge="1" parent="1" source="OD2q_SU7iHxMV3abvHj3-53" target="OD2q_SU7iHxMV3abvHj3-54">
          <mxGeometry relative="1" as="geometry" />
        </mxCell>
        <mxCell id="OD2q_SU7iHxMV3abvHj3-53" value="Gitlab&lt;div&gt;apps&lt;/div&gt;&lt;div&gt;MR：feat2-&amp;gt;develop&lt;/div&gt;" style="whiteSpace=wrap;html=1;verticalAlign=middle;" vertex="1" parent="1">
          <mxGeometry x="170" y="647" width="120" height="60" as="geometry" />
        </mxCell>
        <mxCell id="OD2q_SU7iHxMV3abvHj3-54" value="Jenkins&lt;div&gt;CI&lt;/div&gt;&lt;div&gt;Checkout&lt;/div&gt;" style="whiteSpace=wrap;html=1;verticalAlign=middle;" vertex="1" parent="1">
          <mxGeometry x="370" y="647" width="120" height="60" as="geometry" />
        </mxCell>
        <mxCell id="OD2q_SU7iHxMV3abvHj3-55" value="" style="shape=curlyBracket;whiteSpace=wrap;html=1;rounded=1;labelPosition=left;verticalLabelPosition=middle;align=right;verticalAlign=middle;" vertex="1" parent="1">
          <mxGeometry x="500" y="567" width="20" height="220" as="geometry" />
        </mxCell>
        <mxCell id="OD2q_SU7iHxMV3abvHj3-56" value="Assets" style="childLayout=tableLayout;recursiveResize=0;strokeColor=#98bf21;fillColor=#A7C942;shadow=1;" vertex="1" parent="1">
          <mxGeometry x="540" y="560" width="187" height="222" as="geometry" />
        </mxCell>
        <mxCell id="OD2q_SU7iHxMV3abvHj3-57" style="shape=tableRow;horizontal=0;startSize=0;swimlaneHead=0;swimlaneBody=0;top=0;left=0;bottom=0;right=0;dropTarget=0;collapsible=0;recursiveResize=0;expand=0;fontStyle=0;strokeColor=inherit;fillColor=#ffffff;" vertex="1" parent="OD2q_SU7iHxMV3abvHj3-56">
          <mxGeometry width="187" height="33" as="geometry" />
        </mxCell>
        <mxCell id="OD2q_SU7iHxMV3abvHj3-58" value="模块" style="connectable=0;recursiveResize=0;strokeColor=inherit;fillColor=#A7C942;align=center;fontStyle=1;fontColor=#FFFFFF;html=1;" vertex="1" parent="OD2q_SU7iHxMV3abvHj3-57">
          <mxGeometry width="90" height="33" as="geometry">
            <mxRectangle width="90" height="33" as="alternateBounds" />
          </mxGeometry>
        </mxCell>
        <mxCell id="OD2q_SU7iHxMV3abvHj3-59" value="最终分支" style="connectable=0;recursiveResize=0;strokeColor=inherit;fillColor=#A7C942;align=center;fontStyle=1;fontColor=#FFFFFF;html=1;" vertex="1" parent="OD2q_SU7iHxMV3abvHj3-57">
          <mxGeometry x="90" width="97" height="33" as="geometry">
            <mxRectangle width="97" height="33" as="alternateBounds" />
          </mxGeometry>
        </mxCell>
        <mxCell id="OD2q_SU7iHxMV3abvHj3-60" value="" style="shape=tableRow;horizontal=0;startSize=0;swimlaneHead=0;swimlaneBody=0;top=0;left=0;bottom=0;right=0;dropTarget=0;collapsible=0;recursiveResize=0;expand=0;fontStyle=0;strokeColor=inherit;fillColor=#ffffff;" vertex="1" parent="OD2q_SU7iHxMV3abvHj3-56">
          <mxGeometry y="33" width="187" height="32" as="geometry" />
        </mxCell>
        <mxCell id="OD2q_SU7iHxMV3abvHj3-61" value="prebuilt" style="connectable=0;recursiveResize=0;strokeColor=inherit;fillColor=inherit;align=center;whiteSpace=wrap;html=1;" vertex="1" parent="OD2q_SU7iHxMV3abvHj3-60">
          <mxGeometry width="90" height="32" as="geometry">
            <mxRectangle width="90" height="32" as="alternateBounds" />
          </mxGeometry>
        </mxCell>
        <mxCell id="OD2q_SU7iHxMV3abvHj3-62" value="develop" style="connectable=0;recursiveResize=0;strokeColor=inherit;fillColor=inherit;align=center;whiteSpace=wrap;html=1;" vertex="1" parent="OD2q_SU7iHxMV3abvHj3-60">
          <mxGeometry x="90" width="97" height="32" as="geometry">
            <mxRectangle width="97" height="32" as="alternateBounds" />
          </mxGeometry>
        </mxCell>
        <mxCell id="OD2q_SU7iHxMV3abvHj3-63" value="" style="shape=tableRow;horizontal=0;startSize=0;swimlaneHead=0;swimlaneBody=0;top=0;left=0;bottom=0;right=0;dropTarget=0;collapsible=0;recursiveResize=0;expand=0;fontStyle=1;strokeColor=inherit;fillColor=#EAF2D3;" vertex="1" parent="OD2q_SU7iHxMV3abvHj3-56">
          <mxGeometry y="65" width="187" height="31" as="geometry" />
        </mxCell>
        <mxCell id="OD2q_SU7iHxMV3abvHj3-64" value="build" style="connectable=0;recursiveResize=0;strokeColor=inherit;fillColor=inherit;whiteSpace=wrap;html=1;" vertex="1" parent="OD2q_SU7iHxMV3abvHj3-63">
          <mxGeometry width="90" height="31" as="geometry">
            <mxRectangle width="90" height="31" as="alternateBounds" />
          </mxGeometry>
        </mxCell>
        <mxCell id="OD2q_SU7iHxMV3abvHj3-65" value="develop" style="connectable=0;recursiveResize=0;strokeColor=inherit;fillColor=inherit;whiteSpace=wrap;html=1;" vertex="1" parent="OD2q_SU7iHxMV3abvHj3-63">
          <mxGeometry x="90" width="97" height="31" as="geometry">
            <mxRectangle width="97" height="31" as="alternateBounds" />
          </mxGeometry>
        </mxCell>
        <mxCell id="OD2q_SU7iHxMV3abvHj3-66" value="" style="shape=tableRow;horizontal=0;startSize=0;swimlaneHead=0;swimlaneBody=0;top=0;left=0;bottom=0;right=0;dropTarget=0;collapsible=0;recursiveResize=0;expand=0;fontStyle=0;strokeColor=inherit;fillColor=#ffffff;" vertex="1" parent="OD2q_SU7iHxMV3abvHj3-56">
          <mxGeometry y="96" width="187" height="33" as="geometry" />
        </mxCell>
        <mxCell id="OD2q_SU7iHxMV3abvHj3-67" value="uboot" style="connectable=0;recursiveResize=0;strokeColor=inherit;fillColor=inherit;fontStyle=0;align=center;whiteSpace=wrap;html=1;" vertex="1" parent="OD2q_SU7iHxMV3abvHj3-66">
          <mxGeometry width="90" height="33" as="geometry">
            <mxRectangle width="90" height="33" as="alternateBounds" />
          </mxGeometry>
        </mxCell>
        <mxCell id="OD2q_SU7iHxMV3abvHj3-68" value="develop" style="connectable=0;recursiveResize=0;strokeColor=inherit;fillColor=inherit;fontStyle=0;align=center;whiteSpace=wrap;html=1;" vertex="1" parent="OD2q_SU7iHxMV3abvHj3-66">
          <mxGeometry x="90" width="97" height="33" as="geometry">
            <mxRectangle width="97" height="33" as="alternateBounds" />
          </mxGeometry>
        </mxCell>
        <mxCell id="OD2q_SU7iHxMV3abvHj3-69" value="" style="shape=tableRow;horizontal=0;startSize=0;swimlaneHead=0;swimlaneBody=0;top=0;left=0;bottom=0;right=0;dropTarget=0;collapsible=0;recursiveResize=0;expand=0;fontStyle=1;strokeColor=inherit;fillColor=#EAF2D3;" vertex="1" parent="OD2q_SU7iHxMV3abvHj3-56">
          <mxGeometry y="129" width="187" height="31" as="geometry" />
        </mxCell>
        <mxCell id="OD2q_SU7iHxMV3abvHj3-70" value="kernel" style="connectable=0;recursiveResize=0;strokeColor=inherit;fillColor=inherit;whiteSpace=wrap;html=1;" vertex="1" parent="OD2q_SU7iHxMV3abvHj3-69">
          <mxGeometry width="90" height="31" as="geometry">
            <mxRectangle width="90" height="31" as="alternateBounds" />
          </mxGeometry>
        </mxCell>
        <mxCell id="OD2q_SU7iHxMV3abvHj3-71" value="develop" style="connectable=0;recursiveResize=0;strokeColor=inherit;fillColor=inherit;whiteSpace=wrap;html=1;" vertex="1" parent="OD2q_SU7iHxMV3abvHj3-69">
          <mxGeometry x="90" width="97" height="31" as="geometry">
            <mxRectangle width="97" height="31" as="alternateBounds" />
          </mxGeometry>
        </mxCell>
        <mxCell id="OD2q_SU7iHxMV3abvHj3-72" style="shape=tableRow;horizontal=0;startSize=0;swimlaneHead=0;swimlaneBody=0;top=0;left=0;bottom=0;right=0;dropTarget=0;collapsible=0;recursiveResize=0;expand=0;fontStyle=1;strokeColor=inherit;fillColor=#EAF2D3;" vertex="1" parent="OD2q_SU7iHxMV3abvHj3-56">
          <mxGeometry y="160" width="187" height="31" as="geometry" />
        </mxCell>
        <mxCell id="OD2q_SU7iHxMV3abvHj3-73" value="libs" style="connectable=0;recursiveResize=0;strokeColor=inherit;fillColor=inherit;whiteSpace=wrap;html=1;" vertex="1" parent="OD2q_SU7iHxMV3abvHj3-72">
          <mxGeometry width="90" height="31" as="geometry">
            <mxRectangle width="90" height="31" as="alternateBounds" />
          </mxGeometry>
        </mxCell>
        <mxCell id="OD2q_SU7iHxMV3abvHj3-74" value="develop" style="connectable=0;recursiveResize=0;strokeColor=inherit;fillColor=inherit;whiteSpace=wrap;html=1;" vertex="1" parent="OD2q_SU7iHxMV3abvHj3-72">
          <mxGeometry x="90" width="97" height="31" as="geometry">
            <mxRectangle width="97" height="31" as="alternateBounds" />
          </mxGeometry>
        </mxCell>
        <mxCell id="OD2q_SU7iHxMV3abvHj3-75" style="shape=tableRow;horizontal=0;startSize=0;swimlaneHead=0;swimlaneBody=0;top=0;left=0;bottom=0;right=0;dropTarget=0;collapsible=0;recursiveResize=0;expand=0;fontStyle=1;strokeColor=inherit;fillColor=#EAF2D3;" vertex="1" parent="OD2q_SU7iHxMV3abvHj3-56">
          <mxGeometry y="191" width="187" height="31" as="geometry" />
        </mxCell>
        <mxCell id="OD2q_SU7iHxMV3abvHj3-76" value="&lt;font color=&quot;#ff0000&quot;&gt;apps&lt;/font&gt;" style="connectable=0;recursiveResize=0;strokeColor=inherit;fillColor=inherit;whiteSpace=wrap;html=1;" vertex="1" parent="OD2q_SU7iHxMV3abvHj3-75">
          <mxGeometry width="90" height="31" as="geometry">
            <mxRectangle width="90" height="31" as="alternateBounds" />
          </mxGeometry>
        </mxCell>
        <mxCell id="OD2q_SU7iHxMV3abvHj3-77" value="&lt;font color=&quot;#ff0000&quot;&gt;feat2&lt;/font&gt;" style="connectable=0;recursiveResize=0;strokeColor=inherit;fillColor=inherit;whiteSpace=wrap;html=1;" vertex="1" parent="OD2q_SU7iHxMV3abvHj3-75">
          <mxGeometry x="90" width="97" height="31" as="geometry">
            <mxRectangle width="97" height="31" as="alternateBounds" />
          </mxGeometry>
        </mxCell>
      </root>
    </mxGraphModel>
  </diagram>
</mxfile>
